<?xml version="1.0" encoding="UTF-8" standalone="no"?>
<!-- Created with Inkscape (http://www.inkscape.org/) -->

<svg
   xmlns:dc="http://purl.org/dc/elements/1.1/"
   xmlns:cc="http://creativecommons.org/ns#"
   xmlns:rdf="http://www.w3.org/1999/02/22-rdf-syntax-ns#"
   xmlns:svg="http://www.w3.org/2000/svg"
   xmlns="http://www.w3.org/2000/svg"
   xmlns:sodipodi="http://sodipodi.sourceforge.net/DTD/sodipodi-0.dtd"
   xmlns:inkscape="http://www.inkscape.org/namespaces/inkscape"
   width="744.09448819"
   height="1052.3622047"
   id="svg2"
   version="1.1"
   inkscape:version="0.48.0 r9654"
   sodipodi:docname="tomato2.svg"
   inkscape:export-filename="/home/andrew/Documents/hspomorado/tomato2.png"
   inkscape:export-xdpi="20.15"
   inkscape:export-ydpi="20.15">
  <defs
     id="defs4" />
  <sodipodi:namedview
     id="base"
     pagecolor="#ffffff"
     bordercolor="#666666"
     borderopacity="1.0"
     inkscape:pageopacity="0.0"
     inkscape:pageshadow="2"
     inkscape:zoom="1.979899"
     inkscape:cx="306.07657"
     inkscape:cy="575.30458"
     inkscape:document-units="px"
     inkscape:current-layer="layer1"
     showgrid="false"
     inkscape:window-width="1440"
     inkscape:window-height="826"
     inkscape:window-x="0"
     inkscape:window-y="25"
     inkscape:window-maximized="1" />
  <metadata
     id="metadata7">
    <rdf:RDF>
      <cc:Work
         rdf:about="">
        <dc:format>image/svg+xml</dc:format>
        <dc:type
           rdf:resource="http://purl.org/dc/dcmitype/StillImage" />
        <dc:title></dc:title>
      </cc:Work>
    </rdf:RDF>
  </metadata>
  <g
     inkscape:label="Layer 1"
     inkscape:groupmode="layer"
     id="layer1">
    <path
       style="fill:#0c10e8;stroke:none;stroke-width:1px;stroke-linecap:butt;stroke-linejoin:miter;stroke-opacity:1;fill-opacity:1"
       d="m 327.7945,424.0473 c -0.50507,-0.67344 3.36718,0.75761 4.04061,0.25253 0.67344,-0.50507 -4.75371,0.19481 -4.04061,-0.25253 4.77343,-2.99442 7.72657,-2.31196 -1.93101,0.53571 -2.67212,1.52441 -3.50234,2.49475 -3.62483,2.49475 -2.69374,0 -3.36717,-5.55584 -6.06091,-5.55584 -1.68359,0 -3.36718,0 -5.05077,0 -0.16835,0 -0.33671,0 -0.50507,0 -0.16836,0 -0.38603,-0.11905 -0.50508,0 -0.11905,0.11905 0.11905,0.38603 0,0.50507 -0.25254,0.25254 -1.26269,-0.25253 -1.51523,0 -0.11904,0.11905 0.11905,0.38603 0,0.50508 -0.15639,0.1564 -2.36898,-0.15639 -2.52538,0 -0.11905,0.11905 0.11905,0.38603 0,0.50508 -0.23809,0.23809 -0.77206,-0.2381 -1.01015,0 -0.11905,0.11904 0.15058,0.42978 0,0.50507 -0.60234,0.30117 -1.41797,-0.30117 -2.02031,0 -0.15058,0.0753 0.11905,0.38603 0,0.50508 -0.25253,0.25254 -1.26269,-0.25254 -1.51522,0 -0.11905,0.11905 0.15058,0.42978 0,0.50508 -0.60234,0.30117 -1.41797,-0.30117 -2.02031,0 -0.15058,0.0753 0.11905,0.38602 0,0.50507 -0.25254,0.25254 -1.26269,-0.25254 -1.51523,0 -0.11905,0.11905 0.11905,0.38603 0,0.50508 -0.18143,0.18143 -1.69354,-0.16338 -2.0203,0 -0.15059,0.0753 0.11904,0.38603 0,0.50507 -0.11905,0.11905 -0.33672,0 -0.50508,0 -0.33672,0 -0.70898,-0.15058 -1.01015,0 -0.15059,0.0753 0.15058,0.42979 0,0.50508 -0.30117,0.15059 -0.67344,0 -1.01016,0 -0.16835,0 -0.38602,-0.11905 -0.50507,0 -0.11905,0.11905 0.11905,0.38603 0,0.50508 -0.2381,0.23809 -0.77206,-0.2381 -1.01015,0 -0.11905,0.11904 0.11904,0.38603 0,0.50507 -0.11905,0.11905 -0.38603,-0.11904 -0.50508,0 -0.11905,0.11905 0.11905,0.38603 0,0.50508 -0.2381,0.2381 -0.77206,-0.2381 -1.01015,0 -0.11905,0.11905 0.11904,0.38603 0,0.50508 -0.11905,0.11904 -0.38603,-0.11905 -0.50508,0 -0.11905,0.11904 0.11905,0.38602 0,0.50507 -0.11905,0.11905 -0.38603,-0.11905 -0.50508,0 -0.11904,0.11905 0.11905,0.38603 0,0.50508 -0.11904,0.11905 -0.38602,-0.11905 -0.50507,0 -0.11905,0.11905 0.11905,0.38603 0,0.50507 -0.11905,0.11905 -0.38603,-0.11904 -0.50508,0 -0.11905,0.11905 0.11905,0.38603 0,0.50508 -0.11905,0.11905 -0.38603,-0.11905 -0.50507,0 -0.11905,0.11905 0.15058,0.42979 0,0.50508 -0.30117,0.15058 -0.77206,-0.2381 -1.01016,0 -0.23809,0.23809 0.15059,0.70898 0,1.01015 -0.0753,0.15058 -0.38603,-0.11905 -0.50507,0 -0.11905,0.11905 0.15058,0.42978 0,0.50508 -0.30117,0.15058 -0.70899,-0.15059 -1.01016,0 -0.15058,0.0753 0.15059,0.42978 0,0.50507 -0.30116,0.15059 -0.77205,-0.23809 -1.01015,0 -0.23809,0.2381 0.2381,0.77206 0,1.01016 -0.23809,0.23809 -0.77206,-0.2381 -1.01015,0 -0.2381,0.23809 0.15058,0.70898 0,1.01015 -0.0753,0.15058 -0.38603,-0.11905 -0.50508,0 -0.11904,0.11905 0.11905,0.38603 0,0.50507 -0.11904,0.11905 -0.38603,-0.11904 -0.50507,0 -0.11905,0.11905 0.11904,0.38603 0,0.50508 -0.11905,0.11905 -0.38603,-0.11905 -0.50508,0 -0.11905,0.11905 0.11905,0.38603 0,0.50508 -0.11905,0.11904 -0.38603,-0.11905 -0.50508,0 -0.11904,0.11904 0.11905,0.38603 0,0.50507 -0.11904,0.11905 -0.38602,-0.11904 -0.50507,0 -0.11905,0.11905 0.15058,0.42979 0,0.50508 -0.30117,0.15058 -0.77206,-0.2381 -1.01015,0 -0.2381,0.23809 0.15058,0.70898 0,1.01015 -0.0753,0.15059 -0.38603,-0.11905 -0.50508,0 -0.2381,0.2381 0.23809,0.77206 0,1.01015 -0.11905,0.11905 -0.38603,-0.11904 -0.50508,0 -0.11904,0.11905 0.11905,0.38603 0,0.50508 -0.11904,0.11905 -0.38603,-0.11905 -0.50507,0 -0.11905,0.11905 0.15058,0.42978 0,0.50508 -0.30117,0.15058 -0.77206,-0.2381 -1.01016,0 -0.23809,0.23809 0.15059,0.70898 0,1.01015 -0.0753,0.15058 -0.38602,-0.11905 -0.50507,0 -0.11905,0.11905 0.11905,0.38603 0,0.50508 -0.11905,0.11904 -0.38603,-0.11905 -0.50508,0 -0.11905,0.11904 0.11905,0.38602 0,0.50507 -0.11905,0.11905 -0.38603,-0.11905 -0.50507,0 -0.11905,0.11905 0.11904,0.38603 0,0.50508 -0.11905,0.11905 -0.38603,-0.11905 -0.50508,0 -0.11905,0.11905 0.11905,0.38603 0,0.50507 -0.11905,0.11905 -0.38603,-0.11904 -0.50508,0 -0.11904,0.11905 0.11905,0.38603 0,0.50508 -0.11904,0.11905 -0.38603,-0.11905 -0.50507,0 -0.2381,0.2381 0.23809,0.77206 0,1.01015 -0.11905,0.11905 -0.42979,-0.15058 -0.50508,0 -0.15058,0.30117 0.15058,0.70899 0,1.01016 -0.0753,0.15058 -0.38603,-0.11905 -0.50508,0 -0.11904,0.11904 0.11905,0.38602 0,0.50507 -0.11904,0.11905 -0.42978,-0.15058 -0.50507,0 -0.15059,0.30117 0.15058,0.70899 0,1.01015 -0.0753,0.15059 -0.38603,-0.11904 -0.50508,0 -0.23809,0.2381 0.2381,0.77206 0,1.01016 -0.11905,0.11904 -0.38603,-0.11905 -0.50507,0 -0.2381,0.23809 0.23809,0.77205 0,1.01015 -0.11905,0.11905 -0.38603,-0.11905 -0.50508,0 -0.12154,0.12154 0.12154,1.89877 0,2.0203 -0.11905,0.11905 -0.38603,-0.11904 -0.50508,0 -0.12153,0.12154 0.12154,1.89877 0,2.02031 -0.11905,0.11905 -0.38603,-0.11905 -0.50507,0 -0.12154,0.12154 0.12153,1.89877 0,2.0203 -0.11905,0.11905 -0.38603,-0.11904 -0.50508,0 -0.11905,0.11905 0,0.33672 0,0.50508 0,0.33672 0.15058,0.70898 0,1.01015 -0.67344,1.34687 -0.50508,-1.51523 -0.50508,0.50508 0,0.16836 0,0.33672 0,0.50508 0,0.16836 0.11905,0.38602 0,0.50507 -0.11904,0.11905 -0.42978,-0.15058 -0.50507,0 -0.079,0.15803 0,2.71749 0,3.03046 0,0.16836 0,0.33672 0,0.50508 0,0.16836 0.11905,0.38603 0,0.50507 -0.11905,0.11905 -0.38603,-0.11904 -0.50508,0 -0.11905,0.11905 0,0.33672 0,0.50508 0,0.42325 0.10733,2.31072 0,2.52538 -0.0753,0.15059 -0.42978,-0.15058 -0.50508,0 -0.15058,0.30117 0,0.67344 0,1.01015 0,0.16836 0.11905,0.38603 0,0.50508 -0.11904,0.11905 -0.42978,-0.15059 -0.50507,0 -0.22588,0.45175 0,1.01015 0,1.51523 0,1.17851 0,2.35702 0,3.53553 0,0.18548 -0.0203,1.99998 0,2.02031 0.11905,0.11904 0.42978,-0.15059 0.50507,0 0.15059,0.30117 0,0.67343 0,1.01015 0,0.16836 -0.11904,0.38603 0,0.50508 0.11905,0.11904 0.42979,-0.15059 0.50508,0 0.16338,0.32676 -0.18143,1.83887 0,2.0203 0.11905,0.11905 0.38603,-0.11905 0.50508,0 0.11905,0.11905 0,0.33672 0,0.50508 0,0.16836 0,0.33671 0,0.50507 0,0.1225 -0.0163,1.49899 0,1.51523 0.11905,0.11905 0.38603,-0.11905 0.50507,0 0.11905,0.11905 -0.15058,0.42979 0,0.50508 0.30117,0.15058 0.77206,-0.2381 1.01016,0 0.25253,0.25254 -0.25254,1.26269 0,1.51523 0.11904,0.11904 0.38602,-0.11905 0.50507,0 0.11905,0.11904 -0.11905,0.38603 0,0.50507 0.11905,0.11905 0.38603,-0.11904 0.50508,0 0.11905,0.11905 -0.11905,0.38603 0,0.50508 0.11905,0.11905 0.38603,-0.11905 0.50508,0 0.11904,0.11905 0,0.33672 0,0.50508 0,0.33671 -0.15059,0.70898 0,1.01015 0.0753,0.15058 0.38602,-0.11905 0.50507,0 0.11905,0.11905 -0.11905,0.38603 0,0.50508 0.11905,0.11904 0.38603,-0.11905 0.50508,0 0.11905,0.11904 -0.11905,0.38602 0,0.50507 0.11905,0.11905 0.38603,-0.11905 0.50507,0 0.2381,0.2381 -0.23809,0.77206 0,1.01015 0.11905,0.11905 0.38603,-0.11904 0.50508,0 0.11905,0.11905 -0.11905,0.38603 0,0.50508 0.11905,0.11905 0.38603,-0.11905 0.50508,0 0.11904,0.11905 -0.11905,0.38603 0,0.50508 0.11904,0.11904 0.38603,-0.11905 0.50507,0 0.11905,0.11904 -0.15058,0.42978 0,0.50507 0.30117,0.15059 0.77206,-0.23809 1.01016,0 0.23809,0.2381 -0.15059,0.70899 0,1.01016 0.0753,0.15058 0.42978,-0.15059 0.50507,0 0.15059,0.30116 -0.15058,0.70898 0,1.01015 0.0753,0.15058 0.42979,-0.15059 0.50508,0 0.15058,0.30117 -0.15059,0.70898 0,1.01015 0.0753,0.15058 0.38603,-0.11905 0.50507,0 0.11905,0.11905 -0.11904,0.38603 0,0.50508 0.11905,0.11904 0.38603,-0.11905 0.50508,0 0.11905,0.11904 -0.11905,0.38603 0,0.50507 0.11905,0.11905 0.38603,-0.11904 0.50508,0 0.11904,0.11905 -0.11905,0.38603 0,0.50508 0.11904,0.11905 0.38603,-0.11905 0.50507,0 0.11905,0.11905 -0.11904,0.38603 0,0.50508 0.11905,0.11904 0.38603,-0.11905 0.50508,0 0.11905,0.11904 -0.11905,0.38602 0,0.50507 0.11905,0.11905 0.38603,-0.11905 0.50508,0 0.11904,0.11905 -0.11905,0.38603 0,0.50508 0.11904,0.11905 0.38602,-0.11905 0.50507,0 0.11905,0.11905 -0.11905,0.38603 0,0.50507 0.11905,0.11905 0.38603,-0.11904 0.50508,0 0.11905,0.11905 -0.11905,0.38603 0,0.50508 0.11905,0.11905 0.38603,-0.11905 0.50507,0 0.11905,0.11905 -0.11904,0.38603 0,0.50508 0.11905,0.11904 0.38603,-0.11905 0.50508,0 0.11905,0.11904 -0.15058,0.42978 0,0.50507 0.30117,0.15059 0.70898,-0.15058 1.01015,0 0.15059,0.0753 -0.11904,0.38603 0,0.50508 0.11905,0.11905 0.38603,-0.11905 0.50508,0 0.11905,0.11905 -0.11905,0.38603 0,0.50508 0.11905,0.11904 0.38603,-0.11905 0.50508,0 0.11904,0.11904 -0.11905,0.38602 0,0.50507 0.11904,0.11905 0.38602,-0.11905 0.50507,0 0.11905,0.11905 -0.15058,0.42979 0,0.50508 0.30117,0.15058 0.70899,-0.15059 1.01015,0 0.15059,0.0753 -0.11904,0.38603 0,0.50507 0.11905,0.11905 0.38603,-0.11904 0.50508,0 0.11905,0.11905 -0.16333,0.46425 0,0.50508 0.65333,0.16333 1.48156,-0.40406 2.02031,0 0.40406,0.30305 -0.15972,1.03607 0,1.51523 0.0532,0.15972 0.38602,-0.11905 0.50507,0 0.11905,0.11905 0,0.33672 0,0.50508 0.33672,0 0.70899,-0.15059 1.01015,0 0.15059,0.0753 -0.11904,0.38602 0,0.50507 0.11905,0.11905 0.38603,-0.11905 0.50508,0 0.11905,0.11905 -0.11905,0.38603 0,0.50508 0.11905,0.11905 0.38603,-0.11905 0.50508,0 0.11904,0.11905 -0.15059,0.42978 0,0.50507 0.30117,0.15059 0.70898,-0.15058 1.01015,0 0.15058,0.0753 -0.15058,0.42979 0,0.50508 0.30117,0.15059 0.77206,-0.23809 1.01015,0 0.2381,0.2381 -0.15058,0.70898 0,1.01015 0.0753,0.15059 0.38603,-0.11904 0.50508,0 0.11905,0.11905 -0.15059,0.42979 0,0.50508 0.30117,0.15058 0.70898,-0.15058 1.01015,0 0.15059,0.0753 -0.15058,0.42978 0,0.50508 0.30117,0.15058 0.70898,-0.15059 1.01015,0 0.15059,0.0753 -0.15972,0.45183 0,0.50507 0.47916,0.15972 1.03607,-0.15972 1.51523,0 0.15972,0.0532 -0.11905,0.38603 0,0.50508 0.11905,0.11905 0.33672,0 0.50508,0 0.33672,0 0.70898,-0.15059 1.01015,0 0.15059,0.0753 -0.11905,0.38603 0,0.50507 0.11905,0.11905 0.38603,-0.11904 0.50508,0 0.11905,0.11905 -0.15972,0.45184 0,0.50508 0.47915,0.15972 1.15808,-0.35714 1.51523,0 0.35714,0.35714 -0.40406,1.21218 0,1.51523 0.53874,0.40406 1.36697,-0.16333 2.0203,0 0.16333,0.0408 -0.15058,0.42978 0,0.50508 2.8621,0 0.16836,-0.33672 1.01015,0.50507 0.11905,0.11905 0.33672,0 0.50508,0 0.33672,0 0.70898,-0.15058 1.01015,0 0.15059,0.0753 -0.11904,0.38603 0,0.50508 0.11905,0.11905 0.38603,-0.11905 0.50508,0 0.11905,0.11905 0,0.33672 0,0.50507 0.33672,0 0.70898,-0.15058 1.01015,0 0.15059,0.0753 -0.11905,0.38603 0,0.50508 0.12154,0.12154 1.89877,-0.12154 2.02031,0 0.11904,0.11905 -0.15059,0.42979 0,0.50508 2.8621,0 0.16836,-0.33672 1.01015,0.50507 0.15484,0.15484 2.36929,-0.15609 2.52538,0 0.11905,0.11905 -0.11905,0.38603 0,0.50508 0.11905,0.11905 0.33672,0 0.50508,0 0.33671,0 0.70898,-0.15058 1.01015,0 0.15058,0.0753 -0.11905,0.38603 0,0.50508 0.11905,0.11904 0.33672,0 0.50508,0 0.33671,0 0.70898,-0.15059 1.01015,0 0.15058,0.0753 -0.11905,0.38602 0,0.50507 0.11905,0.11905 0.33672,0 0.50507,0 0.16836,0 0.33672,0 0.50508,0 1.01015,0 2.02031,0 3.03046,0 0.16836,0 0.33672,0 0.50507,0 0.16836,0 0.38603,-0.11905 0.50508,0 0.11905,0.11905 -0.11905,0.38603 0,0.50508 0.11905,0.11905 0.33672,0 0.50508,0 0.67343,0 1.34687,0 2.0203,0 4.71405,0 0.50508,-0.50508 1.51523,0.50508 0.11905,0.11904 0.33672,0 0.50508,0 0.50507,0 1.01015,0 1.51523,0 3.03045,0 6.06091,0 9.09137,0 1.17851,0 2.35702,0 3.53553,0 0.50508,0 1.06348,0.22587 1.51523,0 0.15059,-0.0753 -0.11905,-0.38603 0,-0.50508 0.049,-0.049 2.33291,0 2.52538,0 0.16836,0 0.38603,0.11905 0.50508,0 0.11905,-0.11905 -0.15059,-0.42979 0,-0.50508 0.30117,-0.15058 0.67343,0 1.01015,0 0.16836,0 0.38603,0.11905 0.50508,0 0.11905,-0.11905 -0.15059,-0.42978 0,-0.50507 0.32676,-0.16338 1.83887,0.18143 2.0203,0 0.11905,-0.11905 -0.15972,-0.45184 0,-0.50508 0.47916,-0.15972 1.03607,0.15972 1.51523,0 0.15972,-0.0532 -0.11905,-0.38603 0,-0.50508 0.2381,-0.23809 0.77206,0.2381 1.01015,0 0.11905,-0.11904 -0.11904,-0.38602 0,-0.50507 0.2381,-0.2381 0.77206,0.23809 1.01016,0 0.11904,-0.11905 -0.11905,-0.38603 0,-0.50508 0.11904,-0.11905 0.33671,0 0.50507,0 0.33672,0 0.70899,0.15059 1.01016,0 0.15058,-0.0753 -0.11905,-0.38603 0,-0.50508 0.11904,-0.11904 0.33671,0 0.50507,0 0.50508,0 1.09498,0.28017 1.51523,0 0.28017,-0.18677 -0.15058,-0.70898 0,-1.01015 0.0999,-0.19983 1.01276,0.25124 1.51523,0 0.15058,-0.0753 -0.11905,-0.38603 0,-0.50507 0.11905,-0.11905 0.38603,0.11904 0.50508,0 0.11904,-0.11905 -0.11905,-0.38603 0,-0.50508 0.11904,-0.11905 0.38602,0.11905 0.50507,0 0.11905,-0.11905 -0.11905,-0.38603 0,-0.50508 0.2381,-0.23809 0.77206,0.2381 1.01016,0 0.11904,-0.11904 -0.11905,-0.38603 0,-0.50507 0.11904,-0.11905 0.38602,0.11904 0.50507,0 0.11905,-0.11905 -0.15058,-0.42979 0,-0.50508 0.30117,-0.15058 0.70898,0.15059 1.01015,0 0.15059,-0.0753 -0.11904,-0.38603 0,-0.50508 0.11905,-0.11904 0.38603,0.11905 0.50508,0 0.11905,-0.11904 -0.11905,-0.38602 0,-0.50507 0.11905,-0.11905 0.38603,0.11905 0.50508,0 0.11904,-0.11905 -0.11905,-0.38603 0,-0.50508 0.11904,-0.11905 0.38603,0.11905 0.50507,0 0.11905,-0.11905 -0.11904,-0.38603 0,-0.50507 0.2381,-0.2381 0.77206,0.23809 1.01016,0 0.11904,-0.11905 -0.11905,-0.38603 0,-0.50508 0.11904,-0.11905 0.38602,0.11905 0.50507,0 0.11905,-0.11905 -0.11905,-0.38603 0,-0.50508 0.11905,-0.11904 0.38603,0.11905 0.50508,0 0.11905,-0.11904 -0.11905,-0.38603 0,-0.50507 0.11905,-0.11905 0.38603,0.11904 0.50507,0 0.11905,-0.11905 -0.15058,-0.42979 0,-0.50508 0.30117,-0.15058 0.77206,0.2381 1.01016,0 0.25253,-0.25254 -0.25254,-1.26269 0,-1.51523 0.11904,-0.11905 0.38603,0.11905 0.50507,0 0.11905,-0.11905 -0.11904,-0.38603 0,-0.50507 0.11905,-0.11905 0.38603,0.11904 0.50508,0 0.11905,-0.11905 -0.11905,-0.38603 0,-0.50508 0.11905,-0.11905 0.38603,0.11905 0.50508,0 0.11904,-0.11905 -0.11905,-0.38603 0,-0.50508 0.11904,-0.11904 0.38602,0.11905 0.50507,0 0.2381,-0.23809 -0.23809,-0.77205 0,-1.01015 0.11905,-0.11905 0.42979,0.15059 0.50508,0 0.25123,-0.50247 -0.19983,-1.41531 0,-1.51523 0.30117,-0.15058 0.70898,0.15059 1.01015,0 0.19983,-0.0999 -0.25123,-1.01276 0,-1.51523 0.0753,-0.15058 0.38603,0.11905 0.50508,0 0.11904,-0.11904 -0.11905,-0.38603 0,-0.50507 0.11904,-0.11905 0.38603,0.11904 0.50507,0 0.2381,-0.2381 -0.23809,-0.77206 0,-1.01016 0.11905,-0.11904 0.33672,0 0.50508,0 0,-0.33671 -0.15059,-0.70898 0,-1.01015 0.0753,-0.15058 0.38603,0.11905 0.50508,0 0.11904,-0.11905 -0.11905,-0.38603 0,-0.50507 0.11904,-0.11905 0.45183,0.15971 0.50507,0 0.15972,-0.47916 -0.15972,-1.03608 0,-1.51523 0.0532,-0.15972 0.38603,0.11904 0.50508,0 0.11905,-0.11905 -0.11905,-0.38603 0,-0.50508 0.11905,-0.11905 0.38603,0.11905 0.50507,0 0.2381,-0.23809 -0.23809,-0.77206 0,-1.01015 0.11905,-0.11905 0.38603,0.11905 0.50508,0 0.2381,-0.2381 -0.23809,-0.77206 0,-1.01015 0.11905,-0.11905 0.38603,0.11904 0.50508,0 0.23809,-0.2381 -0.2381,-0.77206 0,-1.01016 0.11904,-0.11904 0.38603,0.11905 0.50507,0 0.2381,-0.23809 -0.23809,-0.77205 0,-1.01015 0.11905,-0.11905 0.38603,0.11905 0.50508,0 0.25254,-0.25254 -0.25254,-1.26269 0,-1.51523 0.11905,-0.11905 0.38603,0.11905 0.50508,0 0.11904,-0.11905 -0.11905,-0.38603 0,-0.50507 0.11904,-0.11905 0.42978,0.15058 0.50507,0 0.5612,-1.1224 -0.84179,-1.2627 0,-2.52539 0.18678,-0.28016 0.77206,0.2381 1.01015,0 0.4762,-0.47619 -0.47619,-1.54411 0,-2.0203 0.2381,-0.2381 0.70899,0.15058 1.01016,0 0.15058,-0.0753 0,-0.33672 0,-0.50508 0,-0.16836 0,-0.33672 0,-0.50507 0,-1.34687 -0.16836,0.16835 0.50507,-0.50508 0.11905,-0.11905 0,-0.33672 0,-0.50508 0,-0.16836 0,-0.33671 0,-0.50507 0,-0.8418 0,-1.68359 0,-2.52538 0,-0.16836 -0.11904,-0.38603 0,-0.50508 0.11905,-0.11905 0.38603,0.11905 0.50508,0 0.2381,-0.2381 -0.2381,-0.77206 0,-1.01015 0.11905,-0.11905 0.38603,0.11904 0.50508,0 0.15639,-0.1564 -0.1564,-2.36899 0,-2.52538 0.11904,-0.11905 0.38602,0.11904 0.50507,0 0.0162,-0.0163 0,-1.39274 0,-1.51523 0,-0.16836 0.11905,-0.38603 0,-0.50508 -0.11905,-0.11905 -0.38603,0.11905 -0.50507,0 -0.11905,-0.11905 0,-0.33672 0,-0.50508 0,-0.42325 0.10733,-2.31071 0,-2.52538 -0.0753,-0.15058 -0.42979,0.15059 -0.50508,0 -0.16338,-0.32676 0.18143,-1.83887 0,-2.0203 -0.11905,-0.11905 -0.38603,0.11905 -0.50508,0 -0.23809,-0.2381 0.2381,-0.77206 0,-1.01015 -0.11904,-0.11905 -0.42978,0.15058 -0.50507,0 -0.15059,-0.30117 0.15058,-0.70899 0,-1.01016 -0.0753,-0.15058 -0.42979,0.15059 -0.50508,0 -0.15058,-0.30117 0,-0.67343 0,-1.01015 0,-0.16836 0.11905,-0.38603 0,-0.50508 -0.11905,-0.11904 -0.38603,0.11905 -0.50508,0 -0.11904,-0.11904 0.11905,-0.38602 0,-0.50507 -0.11904,-0.11905 -0.38602,0.11905 -0.50507,0 -0.2381,-0.2381 0.23809,-0.77206 0,-1.01015 -0.11905,-0.11905 -0.38603,0.11904 -0.50508,0 -0.11905,-0.11905 0.11905,-0.38603 0,-0.50508 -0.11905,-0.11905 -0.33672,0 -0.50507,0 0,-0.33672 0.15058,-0.70898 0,-1.01015 -0.0753,-0.15059 -0.38603,0.11904 -0.50508,0 -0.11905,-0.11905 0.11905,-0.38603 0,-0.50508 -0.11905,-0.11905 -0.38603,0.11905 -0.50508,0 -0.23809,-0.2381 0.30117,-0.85957 0,-1.01015 -0.30117,-0.15059 -0.77205,0.23809 -1.01015,0 -0.23809,-0.2381 0.15059,-0.70899 0,-1.01016 -0.0753,-0.15058 -0.38603,0.11905 -0.50508,0 -0.11904,-0.11904 0.11905,-0.38602 0,-0.50507 -0.11904,-0.11905 -0.38602,0.11905 -0.50507,0 -0.11905,-0.11905 0.11905,-0.38603 0,-0.50508 -0.11905,-0.11905 -0.38603,0.11905 -0.50508,0 -0.11905,-0.11905 0.11905,-0.38603 0,-0.50507 -0.11905,-0.11905 -0.38603,0.11904 -0.50507,0 -0.11905,-0.11905 0.11904,-0.38603 0,-0.50508 -0.11905,-0.11905 -0.42979,0.15058 -0.50508,0 -0.15059,-0.30117 0.15058,-0.70898 0,-1.01015 -0.0753,-0.15059 -0.38603,0.11904 -0.50508,0 -0.11904,-0.11905 0.11905,-0.38603 0,-0.50508 -0.11904,-0.11905 -0.45183,0.15972 -0.50507,0 -0.15972,-0.47916 0.28016,-1.09498 0,-1.51523 -0.18678,-0.28016 -0.70899,0.15059 -1.01016,0 -0.15058,-0.0753 0.11905,-0.38603 0,-0.50507 -0.11904,-0.11905 -0.38602,0.11904 -0.50507,0 -0.11905,-0.11905 0.11905,-0.38603 0,-0.50508 -0.11905,-0.11905 -0.38603,0.11905 -0.50508,0 -0.11905,-0.11905 0.11905,-0.38603 0,-0.50508 -0.11905,-0.11904 -0.38603,0.11905 -0.50507,0 -0.11905,-0.11904 0.11904,-0.38603 0,-0.50507 -0.11905,-0.11905 -0.38603,0.11904 -0.50508,0 -0.11905,-0.11905 0.11905,-0.38603 0,-0.50508 -0.11905,-0.11905 -0.38603,0.11905 -0.50508,0 -0.11904,-0.11905 0.11905,-0.38603 0,-0.50508 -0.11904,-0.11904 -0.42978,0.15059 -0.50507,0 -0.15059,-0.30116 0.23809,-0.77205 0,-1.01015 -0.2381,-0.23809 -0.70899,0.15059 -1.01016,0 -0.15058,-0.0753 0.11905,-0.38603 0,-0.50507 -0.11904,-0.11905 -0.38602,0.11904 -0.50507,0 -0.11905,-0.11905 0.11905,-0.38603 0,-0.50508 -0.11905,-0.11905 -0.38603,0.11905 -0.50508,0 -0.11905,-0.11905 0.11905,-0.38603 0,-0.50508 -0.11905,-0.11904 -0.38603,0.11905 -0.50507,0 -0.11905,-0.11904 0.11904,-0.38603 0,-0.50507 -0.11905,-0.11905 -0.38603,0.11904 -0.50508,0 -0.11905,-0.11905 0.11905,-0.38603 0,-0.50508 -0.11905,-0.11905 -0.38603,0.11905 -0.50508,0 -0.11904,-0.11905 0.11905,-0.38603 0,-0.50508 -0.11904,-0.11904 -0.42978,0.15059 -0.50507,0 -0.15059,-0.30116 0.15058,-0.70898 0,-1.01015 -0.0753,-0.15058 -0.38603,0.11905 -0.50508,0 -0.11905,-0.11905 0.11905,-0.38603 0,-0.50507 -0.11905,-0.11905 -0.42978,0.15058 -0.50508,0 -0.15058,-0.30117 0.15059,-0.70899 0,-1.01016 -0.0753,-0.15058 -0.38602,0.11905 -0.50507,0 -0.11905,-0.11904 0.11905,-0.38603 0,-0.50507 -0.11905,-0.11905 -0.42979,0.15058 -0.50508,0 -0.15058,-0.30117 0.15059,-0.70899 0,-1.01016 -0.0753,-0.15058 -0.42978,0.15059 -0.50507,0 -0.15059,-0.30117 0.15058,-0.70898 0,-1.01015 -0.0753,-0.15058 -0.38603,0.11905 -0.50508,0 -0.11905,-0.11905 0.11905,-0.38603 0,-0.50507 -0.11905,-0.11905 -0.38603,0.11904 -0.50508,0 -0.11905,-0.11905 0.11905,-0.38603 0,-0.50508 -0.11905,-0.11905 -0.38603,0.11905 -0.50507,0 -0.11905,-0.11905 0.11904,-0.38603 0,-0.50508 -0.11905,-0.11904 -0.38603,0.11905 -0.50508,0 -0.2381,-0.23809 0.2381,-0.77205 0,-1.01015 -0.11905,-0.11905 -0.38603,0.11905 -0.50508,0 -0.11904,-0.11905 0.11905,-0.38603 0,-0.50508 -0.11904,-0.11904 -0.38602,0.11905 -0.50507,0 -0.11905,-0.11904 0.11905,-0.38602 0,-0.50507 -0.11905,-0.11905 -0.38603,0.11905 -0.50508,0 -0.11905,-0.11905 0.11905,-0.38603 0,-0.50508 -0.11905,-0.11905 -0.38603,0.11905 -0.50508,0 -0.11904,-0.11905 0.11905,-0.38603 0,-0.50507 -0.11904,-0.11905 -0.38602,0.11904 -0.50507,0 -0.11905,-0.11905 0.11905,-0.38603 0,-0.50508 -0.11905,-0.11905 -0.42979,0.15058 -0.50508,0 -0.15058,-0.30117 0.2381,-0.77206 0,-1.01015 -0.23809,-0.2381 -0.70898,0.15058 -1.01015,0 -0.15058,-0.0753 0.11905,-0.38603 0,-0.50508 -0.11905,-0.11905 -0.38603,0.11905 -0.50508,0 -0.11904,-0.11905 0.11905,-0.38603 0,-0.50508 -0.11904,-0.11904 -0.38603,0.11905 -0.50507,0 -0.11905,-0.11904 0.11904,-0.38602 0,-0.50507 -0.11905,-0.11905 -0.38603,0.11905 -0.50508,0 -0.11905,-0.11905 0.11905,-0.38603 0,-0.50508 -0.11905,-0.11905 -0.38603,0.11905 -0.50508,0 -0.11904,-0.11905 0.15059,-0.42978 0,-0.50508 -0.30116,-0.15058 -0.70898,0.15059 -1.01015,0 -0.15058,-0.0753 0.11905,-0.38602 0,-0.50507 -0.11905,-0.11905 -0.38603,0.11905 -0.50507,0 -0.11905,-0.11905 0.15058,-0.42979 0,-0.50508 -0.30117,-0.15058 -0.70899,0.15059 -1.01016,0 -0.15058,-0.0753 0.11905,-0.38603 0,-0.50507 -0.11904,-0.11905 -0.38603,0.11904 -0.50507,0 -0.11905,-0.11905 0.11904,-0.38603 0,-0.50508 -0.18143,-0.18143 -1.69355,0.16338 -2.02031,0 -0.15058,-0.0753 0.11905,-0.38603 0,-0.50508 -0.11905,-0.11904 -0.38603,0.11905 -0.50507,0 -0.11905,-0.11904 0.11904,-0.38603 0,-0.50507 -0.1564,-0.1564 -2.36899,0.15639 -2.52539,0 -0.11904,-0.11905 0.11905,-0.38603 0,-0.50508 -0.11904,-0.11905 -0.33671,0 -0.50507,0 -0.33672,0 -0.70899,0.15059 -1.01015,0 -0.15059,-0.0753 0.11904,-0.38603 0,-0.50508 -0.12154,-0.12153 -1.89877,0.12154 -2.02031,0 -0.11905,-0.11904 0.11905,-0.38602 0,-0.50507 -0.0983,-0.0983 -2.34095,0.0922 -2.52538,0 -0.15059,-0.0753 0.11905,-0.38603 0,-0.50508 -0.2381,-0.23809 -0.77206,0.2381 -1.01015,0 -0.11905,-0.11905 0.11904,-0.38603 0,-0.50507 -0.1564,-0.1564 -2.36899,0.15639 -2.52538,0 -0.11905,-0.11905 0.11904,-0.38603 0,-0.50508 -0.11905,-0.11905 -0.33672,0 -0.50508,0 -0.16836,0 -0.33672,0 -0.50508,0 -0.84179,0 -1.68358,0 -2.52538,0 z"
       id="path2987"
       inkscape:connector-curvature="0"
       sodipodi:nodetypes="ccscsssssccccscscccccssscssccssccscscccsccsccsccsccccccsccccscscscccccssccccscsccsccsccccsccscccccccsccscscscssccssccsccsccssccsccssssccccscccscscsccscscscscccccccccccccccccsccsccsccccccscscscssccscscscssccccsccccccscsscccsssccssccsccsccssssccscssssssssscsssscssscsscssccccccscssccccccscsccccccscccsccscccsccccscscsccccccscsccccccccscssscsccssccsccscsssssscsccccsscsccscccccscscsscscccsccccscssscscccccsccccssccscscscccccssccscscsccscccccccccsccscccscscssscccscccscsccsscccsccccsccccsccssccscccsscssc" />
    <path
       style="fill:#38241d;stroke:none;stroke-width:1px;stroke-linecap:butt;stroke-linejoin:miter;stroke-opacity:1;fill-opacity:1"
       d="m 322.05357,426.73718 c 0,-0.68452 0,-1.36905 0,-2.05357 0,-0.0421 0.004,-0.44238 0,-0.44643 -0.021,-0.021 -0.0682,0.0211 -0.0893,0 -0.0211,-0.021 0,-0.0595 0,-0.0893 0,-0.0421 0.004,-0.44239 0,-0.44643 -0.0211,-0.021 -0.076,0.0266 -0.0893,0 -0.0367,-0.0734 0.0367,-0.55156 0,-0.625 -0.0133,-0.0266 -0.0682,0.021 -0.0893,0 -0.003,-0.003 0,-0.24621 0,-0.26786 0,-0.35714 0,-0.71429 0,-1.07143 0,-0.0595 0,-0.11905 0,-0.17857 0,-0.0298 -0.0211,-0.0682 0,-0.0893 0.021,-0.021 0.0682,0.0211 0.0893,0 0.003,-0.003 0,-0.2462 0,-0.26785 0,-0.26786 0,-0.53572 0,-0.80357 0,-0.0298 0,-0.0595 0,-0.0893 0,-0.0298 0.0211,-0.0682 0,-0.0893 -0.021,-0.021 -0.0682,0.0211 -0.0893,0 -0.0447,-0.0446 0.0446,-0.22321 0,-0.26785 -0.0211,-0.021 -0.0683,0.021 -0.0893,0 -0.0215,-0.0215 0.0215,-0.33566 0,-0.35715 -0.0211,-0.021 -0.0682,0.0211 -0.0893,0 -0.004,-0.004 0,-0.40433 0,-0.44642 0,-0.0298 0.0211,-0.0682 0,-0.0893 -0.021,-0.0211 -0.0682,0.021 -0.0893,0 -0.0211,-0.0211 0,-0.0595 0,-0.0893 0,-0.17857 0,-0.35714 0,-0.53571 0,-0.0298 0.021,-0.0682 0,-0.0893 -0.0211,-0.021 -0.0682,0.0211 -0.0893,0 -0.021,-0.021 0.0211,-0.0682 0,-0.0893 -0.021,-0.0211 -0.0682,0.021 -0.0893,0 -0.009,-0.009 -0.009,-0.25893 0,-0.26786 0.021,-0.021 0.0682,0.0211 0.0893,0 0.0211,-0.021 -0.021,-0.0682 0,-0.0893 0.0211,-0.0211 0.0682,0.021 0.0893,0 0.021,-0.0211 -0.0211,-0.0682 0,-0.0893 0.0321,-0.0321 0.29938,0.0289 0.35714,0 0.0266,-0.0133 -0.021,-0.0682 0,-0.0893 0.0211,-0.021 0.0595,0 0.0893,0 0.0298,0 0.0595,0 0.0893,0 0.50595,0 -0.59524,0 -0.0893,0 0.43027,0 0.22229,0 0.625,0 0.0587,0 0.33614,-0.0105 0.35714,0 0.0266,0.0133 -0.0211,0.0682 0,0.0893 0.0421,0.0421 0.13648,-0.0421 0.17857,0 0.0211,0.021 -0.021,0.0682 0,0.0893 0.0215,0.0215 0.33566,-0.0215 0.35714,0 0.0211,0.021 -0.021,0.0682 0,0.0893 0.0421,0.0421 0.13649,-0.0421 0.17858,0 0.021,0.0211 -0.0211,0.0682 0,0.0893 0.021,0.021 0.0595,0 0.0893,0 0.0595,0 0.12533,-0.0266 0.17857,0 0.0266,0.0133 -0.0266,0.076 0,0.0893 0.50595,0 0.0298,-0.0595 0.17857,0.0893 0.0446,0.0446 0.22322,-0.0446 0.26786,0 0.0211,0.021 -0.021,0.0682 0,0.0893 0.0211,0.0211 0.0595,0 0.0893,0 0.0595,0 0.12533,-0.0266 0.17857,0 0.0266,0.0133 -0.0211,0.0682 0,0.0893 0.021,0.021 0.076,-0.0266 0.0893,0 0.0399,0.0799 0,0.17857 0,0.26786 0,0.17857 0,0.35714 0,0.53571 0,0.0298 0,0.0595 0,0.0893 0,0.0298 -0.021,0.0682 0,0.0893 0.0211,0.0211 0.076,-0.0266 0.0893,0 0.0266,0.0532 -0.0266,0.12533 0,0.17857 0.0133,0.0266 0.0682,-0.021 0.0893,0 0.0215,0.0215 -0.0215,0.33566 0,0.35715 0.021,0.021 0.076,-0.0266 0.0893,0 0.0399,0.0799 0,0.17857 0,0.26785 0,0.0298 0,0.0595 0,0.0893 0,0.0595 -0.0495,0.14555 0,0.17857 0.0743,0.0495 0.19357,-0.0495 0.26786,0 0.0495,0.033 -0.0266,0.12533 0,0.17857 0.0133,0.0266 0.0682,-0.021 0.0893,0 0.004,0.004 0,0.40433 0,0.44643 0,0.0298 0.0211,0.0682 0,0.0893 -0.021,0.021 -0.0682,-0.021 -0.0893,0 -0.0211,0.021 0.021,0.0682 0,0.0893 -0.0211,0.0211 -0.0682,-0.021 -0.0893,0 -0.007,0.007 0,0.37615 0,0.44643 0,0.0298 0,0.0595 0,0.0893 0,0.0298 0.0298,0.0893 0,0.0893 -0.0298,0 0,-0.11905 0,-0.0893 0,0.0595 0,0.11904 0,0.17857 0,0.0298 0.0211,0.0682 0,0.0893 -0.021,0.0211 -0.0682,-0.021 -0.0893,0 -0.0421,0.0421 0.0421,0.13649 0,0.17858 -0.0211,0.021 -0.0682,-0.0211 -0.0893,0 -0.021,0.021 0,0.0595 0,0.0893 -0.0298,0 -0.0682,-0.021 -0.0893,0 -0.0211,0.0211 0.021,0.0682 0,0.0893 -0.0447,0.0446 -0.22322,-0.0446 -0.26786,0 -0.0211,0.021 0.021,0.0682 0,0.0893 -0.0211,0.0211 -0.0595,0 -0.0893,0 -0.0595,0 -0.12533,-0.0266 -0.17857,0 -0.0266,0.0133 0,0.0595 0,0.0893 0,0.0298 0,0.0595 0,0.0893 0,0.2381 -0.0298,-0.0298 0.0893,0.0893 0.021,0.021 0,0.0595 0,0.0893 0,0.0421 0.004,0.44238 0,0.44642 -0.0211,0.0211 -0.0682,-0.021 -0.0893,0 -0.0421,0.0421 0.0421,0.13649 0,0.17858 -0.021,0.021 -0.0682,-0.0211 -0.0893,0 -0.0211,0.021 0,0.0595 0,0.0893 -0.0298,0 -0.0683,-0.021 -0.0893,0 -0.0211,0.0211 0.021,0.0682 0,0.0893 -0.0211,0.021 -0.0682,-0.021 -0.0893,0 -0.021,0.021 0.0211,0.0682 0,0.0893 -0.021,0.0211 -0.0682,-0.021 -0.0893,0 -0.0421,0.0421 0.0421,0.13648 0,0.17857 -0.0211,0.0211 -0.0682,-0.021 -0.0893,0 -0.0421,0.0421 0.0421,0.13649 0,0.17858 -0.021,0.021 -0.0682,-0.0211 -0.0893,0 -0.0321,0.0321 0.0289,0.29937 0,0.35714 -0.0133,0.0266 -0.0682,-0.0211 -0.0893,0 -0.021,0.021 0,0.0595 0,0.0893 -0.0298,0 -0.0682,-0.021 -0.0893,0 -0.0211,0.0211 0.021,0.0682 0,0.0893 -0.0211,0.021 -0.076,-0.0266 -0.0893,0 0,0.50595 0.0595,0.0298 -0.0893,0.17857 -0.0421,0.0421 0.0421,0.13648 0,0.17857 -0.021,0.0211 -0.0682,-0.021 -0.0893,0 -0.0211,0.0211 0.021,0.0682 0,0.0893 -0.0421,0.0421 -0.13648,-0.0421 -0.17857,0 -0.0211,0.021 0.021,0.0682 0,0.0893 -0.0595,0.0595 -0.11908,-0.0595 -0.17857,0 -0.0421,0.0421 0.0421,0.13649 0,0.17858 -0.0211,0.021 -0.0595,0 -0.0893,0 0,0.0298 0.021,0.0682 0,0.0893 -0.0211,0.0211 -0.076,-0.0266 -0.0893,0 -0.0163,0.0326 0.0174,0.42905 0,0.44643 -0.021,0.021 -0.0682,-0.0211 -0.0893,0 -0.0215,0.0215 0.0215,0.33566 0,0.35714 -0.0211,0.0211 -0.0682,-0.021 -0.0893,0 -0.021,0.0211 0.0211,0.0682 0,0.0893 -0.23809,0 0.0298,-0.0298 -0.0893,0.0893 -0.0211,0.0211 -0.0627,-0.0133 -0.0893,0 -0.15522,0.0776 -0.29762,0.17858 -0.44643,0.26786 z"
       id="path2989"
       inkscape:connector-curvature="0" />
    <rect
       style="fill:none;fill-opacity:1;stroke:none"
       id="rect3778"
       width="142.93658"
       height="142.93658"
       x="252.53815"
       y="397.27826"
       ry="2.1428571"
       inkscape:export-filename="/home/andrew/Documents/hspomorado/Tomato1.png"
       inkscape:export-xdpi="20.15"
       inkscape:export-ydpi="20.15" />
  </g>
</svg>
